<svg width="29" height="9" viewBox="0 0 29 9" fill="none" xmlns="http://www.w3.org/2000/svg">
<path fill-rule="evenodd" clip-rule="evenodd" d="M3.8235 0.00496058C3.11557 0.0442952 2.43763 0.266448 1.82846 0.658714C1.40292 0.932734 0.996515 1.33086 0.7021 1.76213C0.519475 2.02964 0.368502 2.31905 0.252599 2.6238C0.1281 2.95114 0.0580761 3.2535 0.0101515 3.67066C-0.00338254 3.78842 -0.00338254 4.30114 0.0101438 4.41895C0.0954143 5.16153 0.309073 5.75121 0.700309 6.32371C1.08426 6.88555 1.60815 7.34484 2.21427 7.65102C2.90899 8.00194 3.68502 8.14595 4.46737 8.06912C4.91202 8.02547 5.37869 7.89374 5.80261 7.69223C5.99218 7.60212 6.08776 7.54884 6.2575 7.43865C6.50356 7.27892 6.68996 7.12939 6.89793 6.92487C7.57513 6.25892 7.98144 5.41722 8.08751 4.46053C8.10671 4.28737 8.10676 3.80062 8.08761 3.62909C7.99294 2.7815 7.6777 2.05327 7.12249 1.3996C7.02201 1.2813 6.76206 1.02695 6.63964 0.927141C6.03998 0.438284 5.3469 0.135701 4.59711 0.0354291C4.36649 0.00459022 4.05261 -0.00777556 3.8235 0.00496058ZM9.65063 4.05357L9.65258 6.09317L10.3702 6.09529C11.1816 6.0977 11.3563 6.09266 11.5054 6.06261C12.1426 5.93415 12.6586 5.54492 12.9504 4.9727C13.0502 4.77702 13.111 4.58281 13.1488 4.33959C13.1664 4.22615 13.1689 3.91024 13.153 3.79915C13.1049 3.46328 12.9989 3.1834 12.8204 2.92086C12.7301 2.78816 12.6653 2.7102 12.5577 2.60485C12.2885 2.34113 11.9777 2.1673 11.611 2.0753C11.3905 2.01999 11.4159 2.0213 10.484 2.01744L9.64869 2.01398L9.65063 4.05357ZM16.3 2.02047C15.8722 2.06342 15.5007 2.23993 15.2059 2.54038C14.9595 2.79142 14.8088 3.07536 14.7339 3.42931C14.7248 3.47249 14.7143 3.5436 14.7106 3.58734C14.707 3.63109 14.7016 4.21364 14.6987 4.88191L14.6934 6.09695H15.133H15.5725L15.5774 6.05727C15.5801 6.03544 15.5823 5.83817 15.5823 5.61887L15.5824 5.22016H16.462H17.3417V5.65855V6.09695H17.7827H18.2238L18.2188 4.87436C18.2157 4.13258 18.2106 3.61503 18.2057 3.55835C18.1915 3.39367 18.1258 3.1742 18.0368 2.99334C17.8618 2.6378 17.5751 2.35594 17.2143 2.18468C16.963 2.06537 16.7239 2.01348 16.4395 2.01655C16.3776 2.01721 16.3148 2.01898 16.3 2.02047ZM21.2962 2.02669C20.8157 2.09352 20.4056 2.3288 20.1238 2.69938C20.0431 2.80539 20.0085 2.86018 19.9516 2.97204C19.8744 3.12355 19.8254 3.26339 19.7908 3.43041C19.7622 3.56881 19.7576 3.78629 19.7572 5.02175L19.7568 6.09695H20.1966H20.6364L20.6367 4.94616C20.6369 4.31323 20.6401 3.75116 20.644 3.69711C20.6571 3.51342 20.7159 3.3672 20.8374 3.21606C20.9466 3.08025 21.1179 2.96832 21.2865 2.92266C21.4147 2.88793 21.6199 2.88782 21.7475 2.92241C21.7794 2.93102 21.8441 2.9565 21.8913 2.97901C22.1332 3.09433 22.296 3.29114 22.3695 3.55728L22.3914 3.63664L22.3939 4.8668L22.3964 6.09695H22.841H23.2856L23.2801 4.90224C23.2772 4.24515 23.2713 3.66121 23.2672 3.60459C23.2385 3.21049 23.0325 2.78456 22.7342 2.50252C22.469 2.25177 22.1624 2.09904 21.7938 2.03419C21.6925 2.01636 21.4019 2.01198 21.2962 2.02669ZM26.3742 2.02315C25.8373 2.08287 25.356 2.38834 25.0687 2.85166C24.9479 3.04665 24.8752 3.2421 24.8332 3.48506C24.8093 3.6228 24.8041 3.90191 24.8036 5.0671L24.8031 6.09695H25.2468H25.6905V5.65855V5.22016H26.5701H27.4497V5.65855V6.09695H27.8907H28.3317L28.3263 4.88569C28.3233 4.2195 28.3176 3.62804 28.3136 3.57134C28.3054 3.45424 28.2669 3.28943 28.2176 3.16046C28.0499 2.72102 27.7344 2.37842 27.316 2.18147C27.1589 2.10751 27.0344 2.06887 26.8517 2.03732C26.7468 2.0192 26.4807 2.01131 26.3742 2.02315ZM5.59888 2.4539C5.69646 2.46332 5.84524 2.49848 5.94907 2.53664C6.12734 2.60216 6.31611 2.71217 6.36862 2.78113C6.42924 2.86076 6.42387 2.73163 6.42158 4.05483C6.41982 5.08062 6.41802 5.2423 6.40828 5.25379C6.38991 5.27548 6.34953 5.26427 6.24928 5.20966C6.07601 5.11527 5.90983 5.05768 5.70966 5.02266C5.62098 5.00714 5.58563 5.00514 5.40487 5.00537C5.23602 5.0056 5.18223 5.00842 5.09613 5.02158C4.8643 5.057 4.65844 5.1127 4.23588 5.25435C3.42033 5.52773 3.31741 5.55807 3.05532 5.60247C2.95657 5.61919 2.90843 5.62266 2.72739 5.62609C2.53246 5.62978 2.50703 5.62874 2.41489 5.61337C2.22286 5.58132 2.02261 5.51288 1.86288 5.42469C1.77226 5.37465 1.72209 5.33566 1.70384 5.3011C1.68374 5.26302 1.67876 5.07344 1.67932 4.36604C1.68009 3.36761 1.68697 2.88994 1.70083 2.8736C1.71951 2.85157 1.76004 2.86343 1.85527 2.9188C2.171 3.10238 2.46707 3.17495 2.80203 3.15083C3.10017 3.12937 3.34358 3.06503 3.88094 2.86563C4.6658 2.5744 4.90637 2.49877 5.17725 2.45807C5.26097 2.44549 5.48861 2.44324 5.59888 2.4539ZM11.1495 2.89961C11.3268 2.90721 11.411 2.92233 11.5265 2.96727C11.6995 3.03461 11.7998 3.09967 11.9331 3.23115C12.1158 3.41126 12.2112 3.58281 12.2656 3.82939C12.2907 3.94306 12.2908 4.16722 12.2658 4.281C12.2316 4.43629 12.1697 4.58403 12.086 4.70996C12.0349 4.78681 11.8427 4.97595 11.7642 5.02668C11.6259 5.11605 11.4886 5.17208 11.3424 5.19879C11.2668 5.21262 11.2178 5.2147 10.8929 5.21797L10.5284 5.22163V4.05688V2.89213L10.7579 2.89239C10.8842 2.89254 11.0604 2.89579 11.1495 2.89961ZM16.6611 2.91601C16.9521 2.98452 17.1945 3.20549 17.2941 3.49303C17.3321 3.60258 17.3351 3.63573 17.3395 4.00134L17.3437 4.34337L16.8508 4.34337C16.5797 4.34338 16.1834 4.34563 15.9701 4.34839L15.5824 4.3534L15.5824 4.04793C15.5824 3.87992 15.586 3.70505 15.5904 3.65932C15.6234 3.31836 15.9006 3.00466 16.2454 2.91814C16.3549 2.89065 16.5492 2.88966 16.6611 2.91601ZM26.6959 2.90338C26.891 2.9322 27.0519 3.01543 27.1958 3.16205C27.3434 3.31237 27.4214 3.48044 27.4419 3.69202C27.4462 3.73639 27.4497 3.90109 27.4497 4.05803L27.4497 4.34337L26.9578 4.34337C26.6873 4.34338 26.2911 4.34564 26.0775 4.3484L25.6891 4.35341L25.6923 3.98747C25.6954 3.64097 25.6965 3.61831 25.7124 3.56106C25.7589 3.39323 25.8336 3.26553 25.9562 3.14426C26.1517 2.95096 26.422 2.86294 26.6959 2.90338Z" fill="#1D81F1"/>
</svg>
