<svg width="36" height="37" viewBox="0 0 36 37" fill="none" xmlns="http://www.w3.org/2000/svg">
<path fill-rule="evenodd" clip-rule="evenodd" d="M17.0226 0.494053C13.8994 0.667588 10.9085 1.64768 8.22099 3.37826C6.34359 4.58717 4.55062 6.3436 3.25173 8.24625C2.44604 9.42648 1.77998 10.7033 1.26864 12.0478C0.719381 13.4919 0.410454 14.8259 0.199022 16.6662C0.139313 17.1858 0.139313 19.4478 0.198988 19.9676C0.575181 23.2436 1.51779 25.8451 3.24384 28.3709C4.93774 30.8496 7.249 32.8759 9.92306 34.2267C12.988 35.7749 16.4117 36.4102 19.8632 36.0712C21.8249 35.8786 23.8838 35.2975 25.754 34.4085C26.5903 34.0109 27.012 33.7759 27.7608 33.2897C28.8464 32.5851 29.6688 31.9253 30.5863 31.0231C33.5739 28.0851 35.3664 24.3717 35.8344 20.151C35.9191 19.387 35.9194 17.2396 35.8349 16.4828C35.4172 12.7435 34.0264 9.53072 31.577 6.64688C31.1337 6.12498 29.9869 5.00283 29.4468 4.56249C26.8012 2.40577 23.7435 1.07085 20.4356 0.628473C19.4181 0.492419 18.0334 0.437864 17.0226 0.494053ZM24.8552 11.2982C25.2857 11.3398 25.9421 11.4949 26.4001 11.6632C27.1866 11.9523 28.0194 12.4376 28.2511 12.7419C28.5185 13.0932 28.4948 12.5235 28.4847 18.3611C28.4769 22.8867 28.469 23.6 28.4261 23.6507C28.345 23.7463 28.1669 23.6969 27.7246 23.456C26.9602 23.0395 26.227 22.7855 25.3439 22.631C24.9527 22.5625 24.7967 22.5537 23.9993 22.5547C23.2543 22.5557 23.017 22.5681 22.6371 22.6262C21.6144 22.7825 20.7062 23.0282 18.842 23.6531C15.2439 24.8592 14.7899 24.9931 13.6336 25.1889C13.1979 25.2627 12.9855 25.278 12.1868 25.2932C11.3269 25.3094 11.2147 25.3049 10.8081 25.237C9.96095 25.0956 9.07751 24.7937 8.37285 24.4046C7.97303 24.1838 7.75169 24.0118 7.67118 23.8594C7.5825 23.6914 7.56054 22.855 7.563 19.7341C7.5664 15.3293 7.59677 13.2219 7.6579 13.1498C7.74032 13.0526 7.91914 13.1049 8.33925 13.3492C9.73216 14.1592 11.0384 14.4793 12.5161 14.3729C13.8314 14.2782 14.9053 13.9944 17.276 13.1147C20.7386 11.8298 21.8 11.4961 22.995 11.3166C23.3644 11.2611 24.3687 11.2512 24.8552 11.2982Z" fill="#1D81F1"/>
</svg>
