<svg width="29" height="9" viewBox="0 0 29 9" fill="none" xmlns="http://www.w3.org/2000/svg">
<path fill-rule="evenodd" clip-rule="evenodd" d="M3.82351 0.00506441C3.11557 0.0452223 2.43763 0.272025 1.82846 0.672501C1.40292 0.952256 0.996515 1.35871 0.7021 1.79901C0.519475 2.07213 0.368502 2.36758 0.252599 2.67872C0.1281 3.0129 0.0580761 3.3216 0.0101515 3.74748C-0.00338254 3.86771 -0.00338254 4.39116 0.0101438 4.51144C0.0954143 5.26957 0.309073 5.87158 0.70031 6.45606C1.08426 7.02966 1.60815 7.49857 2.21427 7.81115C2.90899 8.16943 3.68503 8.31645 4.46737 8.23801C4.91202 8.19344 5.37869 8.05895 5.80261 7.85323C5.99218 7.76123 6.08776 7.70684 6.2575 7.59434C6.50356 7.43127 6.68996 7.27861 6.89794 7.06981C7.57513 6.38992 7.98144 5.5306 8.08751 4.55388C8.10671 4.3771 8.10676 3.88017 8.08761 3.70504C7.99294 2.83972 7.6777 2.09625 7.12249 1.4289C7.02201 1.30812 6.76206 1.04845 6.63964 0.946546C6.03998 0.447458 5.3469 0.138541 4.59711 0.0361706C4.36649 0.00468629 4.05261 -0.0079383 3.82351 0.00506441ZM9.65064 4.13841L9.65258 6.2207L10.3702 6.22287C11.1816 6.22532 11.3563 6.22018 11.5054 6.1895C12.1426 6.05836 12.6586 5.66098 12.9504 5.07678C13.0502 4.877 13.111 4.67873 13.1488 4.43042C13.1664 4.3146 13.1689 3.99208 13.153 3.87867C13.1049 3.53577 12.9989 3.25002 12.8204 2.982C12.7301 2.84652 12.6653 2.76693 12.5577 2.65937C12.2885 2.39013 11.9777 2.21266 11.611 2.11873C11.3905 2.06227 11.4159 2.06361 10.484 2.05966L9.64869 2.05613L9.65064 4.13841ZM16.3 2.06276C15.8722 2.10661 15.5007 2.28681 15.2059 2.59355C14.9595 2.84984 14.8088 3.13973 14.7339 3.50109C14.7248 3.54517 14.7143 3.61777 14.7106 3.66242C14.707 3.70709 14.7016 4.30183 14.6987 4.98409L14.6934 6.22456H15.133H15.5725L15.5774 6.18405C15.5801 6.16176 15.5823 5.96036 15.5823 5.73648L15.5824 5.32942H16.462H17.3417V5.77699V6.22456H17.7827H18.2238L18.2188 4.97638C18.2157 4.21907 18.2106 3.69069 18.2057 3.63283C18.1915 3.4647 18.1259 3.24063 18.0368 3.05599C17.8618 2.69301 17.5751 2.40525 17.2143 2.2304C16.963 2.10859 16.7239 2.05563 16.4395 2.05875C16.3776 2.05943 16.3148 2.06124 16.3 2.06276ZM21.2962 2.06911C20.8157 2.13734 20.4057 2.37754 20.1238 2.75588C20.0431 2.8641 20.0085 2.92004 19.9516 3.03424C19.8744 3.18892 19.8254 3.33169 19.7908 3.50221C19.7622 3.64351 19.7576 3.86554 19.7572 5.12685L19.7568 6.22456H20.1966H20.6364L20.6367 5.04969C20.6369 4.40351 20.6401 3.82967 20.644 3.77449C20.6571 3.58696 20.7159 3.43767 20.8374 3.28337C20.9466 3.14472 21.1179 3.03044 21.2865 2.98383C21.4147 2.94838 21.6199 2.94826 21.7476 2.98357C21.7794 2.99237 21.8441 3.01838 21.8913 3.04136C22.1332 3.1591 22.296 3.36003 22.3695 3.63173L22.3914 3.71276L22.3939 4.96866L22.3964 6.22456H22.841H23.2856L23.2801 5.00484C23.2772 4.334 23.2713 3.73784 23.2672 3.68003C23.2385 3.27768 23.0325 2.84284 22.7342 2.5549C22.469 2.2989 22.1624 2.14297 21.7938 2.07677C21.6925 2.05857 21.4019 2.05409 21.2962 2.06911ZM26.3742 2.0655C25.8373 2.12647 25.356 2.43833 25.0688 2.91134C24.9479 3.11041 24.8752 3.30995 24.8332 3.558C24.8093 3.69862 24.8041 3.98358 24.8036 5.17315L24.8031 6.22456H25.2468H25.6905V5.77699V5.32942H26.5701H27.4497V5.77699V6.22456H27.8907H28.3317L28.3263 4.98795C28.3233 4.30781 28.3176 3.70398 28.3136 3.64609C28.3054 3.52654 28.2669 3.35828 28.2176 3.2266C28.0499 2.77798 27.7344 2.4282 27.316 2.22712C27.1589 2.15162 27.0344 2.11218 26.8517 2.07996C26.7469 2.06146 26.4807 2.0534 26.3742 2.0655ZM5.59889 2.50526C5.69646 2.51488 5.84525 2.55077 5.94907 2.58973C6.12734 2.65662 6.31611 2.76893 6.36862 2.83934C6.42924 2.92064 6.42387 2.7888 6.42158 4.1397C6.41982 5.18696 6.41802 5.35203 6.40828 5.36376C6.38991 5.3859 6.34953 5.37445 6.24928 5.3187C6.07601 5.22233 5.90983 5.16354 5.70966 5.12779C5.62098 5.11194 5.58563 5.1099 5.40487 5.11014C5.23602 5.11037 5.18223 5.11325 5.09613 5.12668C4.8643 5.16284 4.65844 5.21971 4.23588 5.36432C3.42033 5.64343 3.31741 5.6744 3.05532 5.71973C2.95657 5.7368 2.90843 5.74034 2.72739 5.74385C2.53246 5.74761 2.50703 5.74655 2.41489 5.73086C2.22286 5.69814 2.02261 5.62826 1.86289 5.53823C1.77226 5.48714 1.72209 5.44734 1.70384 5.41205C1.68374 5.37317 1.67876 5.17963 1.67932 4.45743C1.68009 3.4381 1.68697 2.95042 1.70083 2.93375C1.71951 2.91125 1.76005 2.92336 1.85527 2.97989C2.171 3.16732 2.46707 3.2414 2.80203 3.21678C3.10017 3.19487 3.34358 3.12918 3.88094 2.92561C4.6658 2.62828 4.90637 2.55107 5.17725 2.50952C5.26098 2.49668 5.48862 2.49438 5.59889 2.50526ZM11.1495 2.9603C11.3268 2.96806 11.411 2.9835 11.5265 3.02938C11.6995 3.09812 11.7998 3.16455 11.9331 3.29878C12.1159 3.48266 12.2112 3.6578 12.2656 3.90954C12.2907 4.02559 12.2908 4.25444 12.2658 4.3706C12.2316 4.52915 12.1697 4.67998 12.086 4.80854C12.0349 4.887 11.8427 5.0801 11.7642 5.13189C11.6259 5.22313 11.4886 5.28033 11.3424 5.3076C11.2668 5.32172 11.2178 5.32385 10.8929 5.32718L10.5284 5.33092V4.1418V2.95266L10.7579 2.95293C10.8842 2.95308 11.0604 2.95639 11.1495 2.9603ZM16.6611 2.97704C16.9521 3.04698 17.1945 3.27258 17.2941 3.56614C17.3321 3.67798 17.3351 3.71183 17.3395 4.08509L17.3437 4.43428L16.8508 4.43428C16.5797 4.43429 16.1834 4.43659 15.9701 4.4394L15.5824 4.44452L15.5824 4.13265C15.5824 3.96113 15.586 3.7826 15.5905 3.73591C15.6234 3.38781 15.9006 3.06755 16.2454 2.97922C16.3549 2.95116 16.5492 2.95014 16.6611 2.97704ZM26.6959 2.96415C26.891 2.99357 27.0519 3.07854 27.1958 3.22823C27.3434 3.3817 27.4214 3.55328 27.4419 3.7693C27.4462 3.8146 27.4497 3.98275 27.4497 4.14297L27.4497 4.43428L26.9578 4.43428C26.6873 4.43429 26.2912 4.4366 26.0775 4.43941L25.6891 4.44453L25.6923 4.07093C25.6954 3.71717 25.6965 3.69405 25.7124 3.63559C25.7589 3.46425 25.8336 3.33388 25.9563 3.21007C26.1517 3.01272 26.422 2.92286 26.6959 2.96415Z" fill="#1D81F1"/>
</svg>
